0
SECTION
2
HEADER
9
$INSUNITS
70
4
9
$ACADVER
1
AC1014
9
$HANDSEED
5
FFFF
0
ENDSEC
0
SECTION
2
TABLES
0
TABLE
2
VPORT
5
8
100
AcDbSymbolTable
0
ENDTAB
0
TABLE
2
LTYPE
5
5
100
AcDbSymbolTable
0
LTYPE
5
14
100
AcDbSymbolTableRecord
100
AcDbLinetypeTableRecord
2
BYBLOCK
70
0
0
LTYPE
5
15
100
AcDbSymbolTableRecord
100
AcDbLinetypeTableRecord
2
BYLAYER
70
0
0
ENDTAB
0
TABLE
2
LAYER
5
2
100
AcDbSymbolTable
70
2
0
LAYER
5
50
100
AcDbSymbolTableRecord
100
AcDbLayerTableRecord
2
0
70
0
6
CONTINUOUS
0
ENDTAB
0
TABLE
2
STYLE
5
3
100
AcDbSymbolTable
70
1
0
STYLE
5
11
100
AcDbSymbolTableRecord
100
AcDbTextStyleTableRecord
2
STANDARD
70
0
0
ENDTAB
0
TABLE
2
VIEW
5
6
100
AcDbSymbolTable
70
0
0
ENDTAB
0
TABLE
2
UCS
5
7
100
AcDbSymbolTable
70
0
0
ENDTAB
0
TABLE
2
APPID
5
9
100
AcDbSymbolTable
70
2
0
APPID
5
12
100
AcDbSymbolTableRecord
100
AcDbRegAppTableRecord
2
ACAD
70
0
0
ENDTAB
0
TABLE
2
DIMSTYLE
5
A
100
AcDbSymbolTable
70
1
0
ENDTAB
0
TABLE
2
BLOCK_RECORD
5
1
100
AcDbSymbolTable
70
1
0
BLOCK_RECORD
5
1F
100
AcDbSymbolTableRecord
100
AcDbBlockTableRecord
2
*MODEL_SPACE
0
BLOCK_RECORD
5
1B
100
AcDbSymbolTableRecord
100
AcDbBlockTableRecord
2
*PAPER_SPACE
0
ENDTAB
0
ENDSEC
0
SECTION
2
BLOCKS
0
BLOCK
5
20
100
AcDbEntity
100
AcDbBlockBegin
2
*MODEL_SPACE
0
ENDBLK
5
21
100
AcDbEntity
100
AcDbBlockEnd
0
BLOCK
5
1C
100
AcDbEntity
100
AcDbBlockBegin
2
*PAPER_SPACE
0
ENDBLK
5
1D
100
AcDbEntity
100
AcDbBlockEnd
0
ENDSEC
0
SECTION
2
ENTITIES
0
LWPOLYLINE
5
100
100
AcDbEntity
8
0
100
AcDbPolyline
90
12
70
1
43
0.0
10
55.000000000028997
20
98.000000000000568
10
54.999999999998927
20
54.096387360255697
10
49.931476737714434
20
-42.616797812108103
42
-0.11835779964074396
10
43.301270189222762
20
-64.999999999953118
10
25.980762113528385
20
-94.999999999995737
42
-0.57735026918960286
10
-25.980762113528634
20
-94.999999999993776
10
-43.301270189221853
20
-64.999999999985704
42
-0.11835779964076895
10
-49.931476737728701
20
-42.616797812132738
10
-55.00000000000108
20
54.096387360255697
10
-55.00000000000086
20
98.000000000000796
42
-0.41421356237309503
10
-43.000000000000867
20
110.00000000000078
10
42.999999999999716
20
110.00000000002986
42
-0.41421356237309503
0
LINE
5
101
100
AcDbEntity
8
0
100
AcDbLine
10
13.559065871423353
20
65.195300000003812
30
0
11
-3.8409341285766563
21
65.195300000003812
31
0
0
CIRCLE
5
102
100
AcDbEntity
8
0
100
AcDbCircle
10
-45
20
100.00000000001592
30
0
40
2.25
210
0
220
0
230
1
0
CIRCLE
5
103
100
AcDbEntity
8
0
100
AcDbCircle
10
45
20
100.00000000004745
30
0
40
2.25
210
0
220
0
230
1
0
CIRCLE
5
104
100
AcDbEntity
8
0
100
AcDbCircle
10
-45
20
-7.9997563251088311
30
0
40
2.25
210
0
220
0
230
1
0
CIRCLE
5
105
100
AcDbEntity
8
0
100
AcDbCircle
10
45
20
-7.9997563251088319
30
0
40
2.25
210
0
220
0
230
1
0
CIRCLE
5
106
100
AcDbEntity
8
0
100
AcDbCircle
10
-35.000000521540649
20
-25
30
0
40
5.5901699437494736
210
0
220
0
230
1
0
LWPOLYLINE
5
107
100
AcDbEntity
8
0
100
AcDbPolyline
90
8
70
1
43
0.0
10
-40.000000521540642
20
-22.5
10
-40.000000521540642
20
-27.500000000000004
10
-38.741657908314586
20
-27.499999999999996
42
0.53452248382484857
10
-31.258343134766701
20
-27.500000000000007
10
-30.000000521540645
20
-27.500000000000014
10
-30.000000521540645
20
-22.500000000000014
10
-31.258343134766694
20
-22.500000000000014
42
0.53452248382485001
10
-38.741657908314586
20
-22.5
0
CIRCLE
5
108
100
AcDbEntity
8
0
100
AcDbCircle
10
-35.000000521540649
20
-25
30
0
40
4.5
210
0
220
0
230
1
0
LINE
5
109
100
AcDbEntity
8
0
100
AcDbLine
10
0
20
2.5
30
0
11
0
21
20
31
0
0
LWPOLYLINE
5
110
100
AcDbEntity
8
0
100
AcDbPolyline
90
8
70
1
43
0.0
10
38.741657908314586
20
-22.5
42
0.53452248382485001
10
31.258343134766694
20
-22.500000000000014
10
30.000000521540645
20
-22.500000000000014
10
30.000000521540645
20
-27.500000000000014
10
31.258343134766701
20
-27.500000000000007
42
0.53452248382484857
10
38.741657908314586
20
-27.499999999999996
10
40.000000521540642
20
-27.500000000000004
10
40.000000521540642
20
-22.5
0
CIRCLE
5
111
100
AcDbEntity
8
0
100
AcDbCircle
10
-20
20
-96.00000000000108
30
0
40
2.25
210
0
220
0
230
1
0
CIRCLE
5
112
100
AcDbEntity
8
0
100
AcDbCircle
10
20
20
-96.00000000000108
30
0
40
2.25
210
0
220
0
230
1
0
LINE
5
113
100
AcDbEntity
8
0
100
AcDbLine
10
13.559065871423355
20
47.795300000003806
30
0
11
13.559065871423355
21
65.195300000003812
31
0
0
LINE
5
114
100
AcDbEntity
8
0
100
AcDbLine
10
-3.8409341285766563
20
47.795300000003806
30
0
11
13.559065871423355
21
47.795300000003806
31
0
0
LINE
5
115
100
AcDbEntity
8
0
100
AcDbLine
10
-3.8409341285766563
20
65.195300000003812
30
0
11
-3.8409341285766563
21
47.795300000003806
31
0
0
LWPOLYLINE
5
116
100
AcDbEntity
8
0
100
AcDbPolyline
90
4
70
1
43
0.0
10
14.059065871423355
20
47.295300000003806
10
14.059065871423355
20
65.695300000003812
10
-4.3409341285766567
20
65.695300000003812
10
-4.3409341285766558
20
47.295300000003806
0
ENDSEC
0
SECTION
2
OBJECTS
0
DICTIONARY
5
C
100
AcDbDictionary
3
ACAD_GROUP
350
D
3
ACAD_MLINESTYLE
350
17
0
DICTIONARY
5
D
100
AcDbDictionary
0
DICTIONARY
5
1A
330
C
100
AcDbDictionary
0
DICTIONARY
5
17
100
AcDbDictionary
0
ENDSEC
0
EOF
