%TF.GenerationSoftware,KiCad,Pcbnew,(6.0.5)*%
%TF.CreationDate,2023-05-26T17:46:03+02:00*%
%TF.ProjectId,EDUEXO-custom-PCB,45445545-584f-42d6-9375-73746f6d2d50,rev?*%
%TF.SameCoordinates,Original*%
%TF.FileFunction,Legend,Bot*%
%TF.FilePolarity,Positive*%
%FSLAX46Y46*%
G04 Gerber Fmt 4.6, Leading zero omitted, Abs format (unit mm)*
G04 Created by KiCad (PCBNEW (6.0.5)) date 2023-05-26 17:46:03*
%MOMM*%
%LPD*%
G01*
G04 APERTURE LIST*
%ADD10C,0.100000*%
%ADD11C,0.120000*%
G04 APERTURE END LIST*
D10*
%TO.C,U3*%
X198374114Y-132269880D02*
X198350304Y-132198452D01*
X198326495Y-132174642D01*
X198278876Y-132150833D01*
X198207447Y-132150833D01*
X198159828Y-132174642D01*
X198136019Y-132198452D01*
X198112209Y-132246071D01*
X198112209Y-132436547D01*
X198612209Y-132436547D01*
X198612209Y-132269880D01*
X198588400Y-132222261D01*
X198564590Y-132198452D01*
X198516971Y-132174642D01*
X198469352Y-132174642D01*
X198421733Y-132198452D01*
X198397923Y-132222261D01*
X198374114Y-132269880D01*
X198374114Y-132436547D01*
X198112209Y-131674642D02*
X198112209Y-131960357D01*
X198112209Y-131817500D02*
X198612209Y-131817500D01*
X198540780Y-131865119D01*
X198493161Y-131912738D01*
X198469352Y-131960357D01*
X202525400Y-133774842D02*
X202549209Y-133822461D01*
X202549209Y-133893890D01*
X202525400Y-133965319D01*
X202477780Y-134012938D01*
X202430161Y-134036747D01*
X202334923Y-134060557D01*
X202263495Y-134060557D01*
X202168257Y-134036747D01*
X202120638Y-134012938D01*
X202073019Y-133965319D01*
X202049209Y-133893890D01*
X202049209Y-133846271D01*
X202073019Y-133774842D01*
X202096828Y-133751033D01*
X202263495Y-133751033D01*
X202263495Y-133846271D01*
X202049209Y-133274842D02*
X202049209Y-133560557D01*
X202049209Y-133417700D02*
X202549209Y-133417700D01*
X202477780Y-133465319D01*
X202430161Y-133512938D01*
X202406352Y-133560557D01*
X198071428Y-133333333D02*
X198047619Y-133357142D01*
X198023809Y-133428571D01*
X198023809Y-133476190D01*
X198047619Y-133547619D01*
X198095238Y-133595238D01*
X198142857Y-133619047D01*
X198238095Y-133642857D01*
X198309523Y-133642857D01*
X198404761Y-133619047D01*
X198452380Y-133595238D01*
X198500000Y-133547619D01*
X198523809Y-133476190D01*
X198523809Y-133428571D01*
X198500000Y-133357142D01*
X198476190Y-133333333D01*
X198023809Y-132857142D02*
X198023809Y-133142857D01*
X198023809Y-133000000D02*
X198523809Y-133000000D01*
X198452380Y-133047619D01*
X198404761Y-133095238D01*
X198380952Y-133142857D01*
X202049209Y-132125433D02*
X202287304Y-132292100D01*
X202049209Y-132411147D02*
X202549209Y-132411147D01*
X202549209Y-132220671D01*
X202525400Y-132173052D01*
X202501590Y-132149242D01*
X202453971Y-132125433D01*
X202382542Y-132125433D01*
X202334923Y-132149242D01*
X202311114Y-132173052D01*
X202287304Y-132220671D01*
X202287304Y-132411147D01*
X202049209Y-131649242D02*
X202049209Y-131934957D01*
X202049209Y-131792100D02*
X202549209Y-131792100D01*
X202477780Y-131839719D01*
X202430161Y-131887338D01*
X202406352Y-131934957D01*
D11*
X192598000Y-140271700D02*
X197271600Y-140271700D01*
X192598000Y-137198300D02*
X192598000Y-140271700D01*
X193258400Y-123228300D02*
X211190800Y-123228300D01*
X211190800Y-123228300D02*
X211190800Y-139331900D01*
X211190800Y-139331900D02*
X193258400Y-139331900D01*
X193258400Y-139331900D02*
X193258400Y-123228300D01*
%TD*%
M02*
