%TF.GenerationSoftware,KiCad,Pcbnew,(6.0.5)*%
%TF.CreationDate,2023-05-26T17:46:03+02:00*%
%TF.ProjectId,EDUEXO-custom-PCB,45445545-584f-42d6-9375-73746f6d2d50,rev?*%
%TF.SameCoordinates,Original*%
%TF.FileFunction,Paste,Top*%
%TF.FilePolarity,Positive*%
%FSLAX46Y46*%
G04 Gerber Fmt 4.6, Leading zero omitted, Abs format (unit mm)*
G04 Created by KiCad (PCBNEW (6.0.5)) date 2023-05-26 17:46:03*
%MOMM*%
%LPD*%
G01*
G04 APERTURE LIST*
G04 Aperture macros list*
%AMRoundRect*
0 Rectangle with rounded corners*
0 $1 Rounding radius*
0 $2 $3 $4 $5 $6 $7 $8 $9 X,Y pos of 4 corners*
0 Add a 4 corners polygon primitive as box body*
4,1,4,$2,$3,$4,$5,$6,$7,$8,$9,$2,$3,0*
0 Add four circle primitives for the rounded corners*
1,1,$1+$1,$2,$3*
1,1,$1+$1,$4,$5*
1,1,$1+$1,$6,$7*
1,1,$1+$1,$8,$9*
0 Add four rect primitives between the rounded corners*
20,1,$1+$1,$2,$3,$4,$5,0*
20,1,$1+$1,$4,$5,$6,$7,0*
20,1,$1+$1,$6,$7,$8,$9,0*
20,1,$1+$1,$8,$9,$2,$3,0*%
G04 Aperture macros list end*
%ADD10RoundRect,0.250000X0.250000X0.475000X-0.250000X0.475000X-0.250000X-0.475000X0.250000X-0.475000X0*%
%ADD11RoundRect,0.250000X-0.475000X0.250000X-0.475000X-0.250000X0.475000X-0.250000X0.475000X0.250000X0*%
%ADD12RoundRect,0.250000X0.262500X0.450000X-0.262500X0.450000X-0.262500X-0.450000X0.262500X-0.450000X0*%
%ADD13RoundRect,0.250000X0.475000X-0.250000X0.475000X0.250000X-0.475000X0.250000X-0.475000X-0.250000X0*%
%ADD14RoundRect,0.250000X0.450000X-0.262500X0.450000X0.262500X-0.450000X0.262500X-0.450000X-0.262500X0*%
%ADD15RoundRect,0.147500X-0.172500X0.147500X-0.172500X-0.147500X0.172500X-0.147500X0.172500X0.147500X0*%
%ADD16R,0.450000X0.600000*%
%ADD17RoundRect,0.250000X-0.250000X-0.475000X0.250000X-0.475000X0.250000X0.475000X-0.250000X0.475000X0*%
%ADD18RoundRect,0.250000X-0.262500X-0.450000X0.262500X-0.450000X0.262500X0.450000X-0.262500X0.450000X0*%
%ADD19RoundRect,0.220000X0.220000X-0.220000X0.220000X0.220000X-0.220000X0.220000X-0.220000X-0.220000X0*%
%ADD20RoundRect,0.062500X0.062500X-0.375000X0.062500X0.375000X-0.062500X0.375000X-0.062500X-0.375000X0*%
%ADD21RoundRect,0.062500X0.375000X-0.062500X0.375000X0.062500X-0.375000X0.062500X-0.375000X-0.062500X0*%
%ADD22RoundRect,0.250000X-0.450000X0.262500X-0.450000X-0.262500X0.450000X-0.262500X0.450000X0.262500X0*%
%ADD23RoundRect,0.150000X-0.150000X0.512500X-0.150000X-0.512500X0.150000X-0.512500X0.150000X0.512500X0*%
%ADD24RoundRect,0.218750X-0.218750X-0.256250X0.218750X-0.256250X0.218750X0.256250X-0.218750X0.256250X0*%
%ADD25RoundRect,0.150000X0.150000X-0.587500X0.150000X0.587500X-0.150000X0.587500X-0.150000X-0.587500X0*%
%ADD26RoundRect,0.147500X0.172500X-0.147500X0.172500X0.147500X-0.172500X0.147500X-0.172500X-0.147500X0*%
%ADD27RoundRect,0.587500X-0.587500X-1.162500X0.587500X-1.162500X0.587500X1.162500X-0.587500X1.162500X0*%
%ADD28R,1.350000X0.400000*%
%ADD29R,1.600000X2.100000*%
%ADD30R,1.900000X1.800000*%
%ADD31R,1.900000X1.900000*%
G04 APERTURE END LIST*
D10*
%TO.C,C11*%
X192150000Y-129032000D03*
X190250000Y-129032000D03*
%TD*%
D11*
%TO.C,C15*%
X168750000Y-178800000D03*
X168750000Y-180700000D03*
%TD*%
D12*
%TO.C,R8*%
X207662500Y-115750000D03*
X205837500Y-115750000D03*
%TD*%
D13*
%TO.C,C7*%
X204000000Y-109450000D03*
X204000000Y-107550000D03*
%TD*%
D14*
%TO.C,R2*%
X199750000Y-167662500D03*
X199750000Y-165837500D03*
%TD*%
D15*
%TO.C,D6*%
X174000000Y-134015000D03*
X174000000Y-134985000D03*
%TD*%
D16*
%TO.C,D4*%
X194500000Y-165700000D03*
X194500000Y-167800000D03*
%TD*%
D17*
%TO.C,C4*%
X202050000Y-105250000D03*
X203950000Y-105250000D03*
%TD*%
D14*
%TO.C,R9*%
X202000000Y-118912500D03*
X202000000Y-117087500D03*
%TD*%
D10*
%TO.C,C16*%
X198450000Y-115500000D03*
X196550000Y-115500000D03*
%TD*%
D13*
%TO.C,C6*%
X207000000Y-108950000D03*
X207000000Y-107050000D03*
%TD*%
D14*
%TO.C,R10*%
X211228000Y-114374500D03*
X211228000Y-112549500D03*
%TD*%
D18*
%TO.C,R14*%
X171453500Y-143180000D03*
X173278500Y-143180000D03*
%TD*%
D12*
%TO.C,R6*%
X232412500Y-152862500D03*
X230587500Y-152862500D03*
%TD*%
D17*
%TO.C,C13*%
X192050000Y-174250000D03*
X193950000Y-174250000D03*
%TD*%
D19*
%TO.C,U2*%
X202525000Y-114025000D03*
X201475000Y-112975000D03*
X202525000Y-112975000D03*
X201475000Y-114025000D03*
D20*
X200750000Y-115437500D03*
X201250000Y-115437500D03*
X201750000Y-115437500D03*
X202250000Y-115437500D03*
X202750000Y-115437500D03*
X203250000Y-115437500D03*
D21*
X203937500Y-114750000D03*
X203937500Y-114250000D03*
X203937500Y-113750000D03*
X203937500Y-113250000D03*
X203937500Y-112750000D03*
X203937500Y-112250000D03*
D20*
X203250000Y-111562500D03*
X202750000Y-111562500D03*
X202250000Y-111562500D03*
X201750000Y-111562500D03*
X201250000Y-111562500D03*
X200750000Y-111562500D03*
D21*
X200062500Y-112250000D03*
X200062500Y-112750000D03*
X200062500Y-113250000D03*
X200062500Y-113750000D03*
X200062500Y-114250000D03*
X200062500Y-114750000D03*
%TD*%
D17*
%TO.C,C5*%
X205550000Y-112000000D03*
X207450000Y-112000000D03*
%TD*%
%TO.C,C12*%
X192050000Y-176282000D03*
X193950000Y-176282000D03*
%TD*%
D11*
%TO.C,C2*%
X192500000Y-165800000D03*
X192500000Y-167700000D03*
%TD*%
D10*
%TO.C,C1*%
X198450000Y-117500000D03*
X196550000Y-117500000D03*
%TD*%
D22*
%TO.C,R3*%
X196500000Y-165837500D03*
X196500000Y-167662500D03*
%TD*%
D23*
%TO.C,Q2*%
X232700000Y-155862500D03*
X231750000Y-155862500D03*
X230800000Y-155862500D03*
X230800000Y-158137500D03*
X231750000Y-158137500D03*
X232700000Y-158137500D03*
%TD*%
D10*
%TO.C,C10*%
X192150000Y-127000000D03*
X190250000Y-127000000D03*
%TD*%
D24*
%TO.C,D3*%
X168212500Y-130000000D03*
X169787500Y-130000000D03*
%TD*%
D18*
%TO.C,R7*%
X225087500Y-157250000D03*
X226912500Y-157250000D03*
%TD*%
D22*
%TO.C,R1*%
X188750000Y-170425000D03*
X188750000Y-172250000D03*
%TD*%
D25*
%TO.C,Q1*%
X225050000Y-154937500D03*
X226950000Y-154937500D03*
X226000000Y-153062500D03*
%TD*%
D11*
%TO.C,C18*%
X207000000Y-165800000D03*
X207000000Y-167700000D03*
%TD*%
D12*
%TO.C,TH1*%
X213162500Y-116500000D03*
X211337500Y-116500000D03*
%TD*%
D17*
%TO.C,C9*%
X199550000Y-140500000D03*
X201450000Y-140500000D03*
%TD*%
D13*
%TO.C,C8*%
X202000000Y-109450000D03*
X202000000Y-107550000D03*
%TD*%
D17*
%TO.C,C14*%
X171050000Y-177500000D03*
X172950000Y-177500000D03*
%TD*%
D26*
%TO.C,D5*%
X174000000Y-137735000D03*
X174000000Y-136765000D03*
%TD*%
D27*
%TO.C,L1*%
X198025000Y-108750000D03*
X191975000Y-108750000D03*
%TD*%
D24*
%TO.C,D2*%
X168276500Y-143180000D03*
X169851500Y-143180000D03*
%TD*%
D16*
%TO.C,D1*%
X209250000Y-165700000D03*
X209250000Y-167800000D03*
%TD*%
D10*
%TO.C,C3*%
X198450000Y-113500000D03*
X196550000Y-113500000D03*
%TD*%
D11*
%TO.C,C17*%
X204750000Y-165800000D03*
X204750000Y-167700000D03*
%TD*%
D22*
%TO.C,R4*%
X201750000Y-165837500D03*
X201750000Y-167662500D03*
%TD*%
%TO.C,R11*%
X213260000Y-112549500D03*
X213260000Y-114374500D03*
%TD*%
D28*
%TO.C,J5*%
X169925000Y-135000000D03*
X169925000Y-135650000D03*
X169925000Y-136300000D03*
X169925000Y-136950000D03*
X169925000Y-137600000D03*
D29*
X169800000Y-133200000D03*
X169800000Y-139400000D03*
D30*
X167250000Y-132500000D03*
D31*
X167250000Y-135100000D03*
X167250000Y-137500000D03*
D30*
X167250000Y-140100000D03*
%TD*%
D18*
%TO.C,R13*%
X171587500Y-129750000D03*
X173412500Y-129750000D03*
%TD*%
D22*
%TO.C,R12*%
X204000000Y-117087500D03*
X204000000Y-118912500D03*
%TD*%
M02*
