M48
; DRILL file {KiCad (6.0.5)} date Fri May 26 17:46:00 2023
; FORMAT={-:-/ absolute / inch / decimal}
; #@! TF.CreationDate,2023-05-26T17:46:00+02:00
; #@! TF.GenerationSoftware,Kicad,Pcbnew,(6.0.5)
; #@! TF.FileFunction,Plated,1,4,PTH
FMAT,2
INCH
; #@! TA.AperFunction,Plated,PTH,ViaDrill
T1C0.0118
; #@! TA.AperFunction,Plated,PTH,ComponentDrill
T2C0.0118
; #@! TA.AperFunction,Plated,PTH,ComponentDrill
T3C0.0307
; #@! TA.AperFunction,Plated,PTH,ComponentDrill
T4C0.0315
; #@! TA.AperFunction,Plated,PTH,ComponentDrill
T5C0.0378
; #@! TA.AperFunction,Plated,PTH,ComponentDrill
T6C0.0394
; #@! TA.AperFunction,Plated,PTH,ComponentDrill
T7C0.0512
; #@! TA.AperFunction,Plated,PTH,ComponentDrill
T8C0.0531
%
G90
G05
T1
X6.6437Y-7.1555
X6.7421Y-5.4194
X6.8799Y-5.2762
X6.8799Y-5.4232
X7.1555Y-7.4409
X7.1654Y-7.0177
X7.2638Y-4.8425
X7.2736Y-4.7146
X7.2835Y-7.1949
X7.372Y-4.7146
X7.4213Y-7.2441
X7.4409Y-4.8425
X7.4902Y-4.9409
X7.4902Y-5.1378
X7.5197Y-6.8602
X7.5197Y-6.939
X7.6575Y-6.6437
X7.6772Y-6.8602
X7.6772Y-6.939
X7.6969Y-4.4685
X7.6969Y-4.5472
X7.6969Y-4.626
X7.8543Y-4.6752
X7.874Y-4.7441
X7.9035Y-4.2717
X7.9035Y-4.3012
X7.9528Y-4.2028
X7.9528Y-4.7146
X7.9724Y-5.5315
X8.0315Y-4.2028
X8.0315Y-4.7146
X8.061Y-6.6437
X8.0807Y-4.2717
X8.0807Y-4.3012
X8.1496Y-4.1673
X8.1496Y-6.6437
X8.1791Y-4.6063
X8.2087Y-4.4094
X8.2382Y-4.6161
X8.2382Y-4.6752
X8.2677Y-4.5079
X8.2874Y-4.5866
X8.2972Y-4.3406
X8.3071Y-7.3819
X8.3268Y-4.2421
X8.5728Y-6.4272
X8.5827Y-6.122
X8.6417Y-6.7323
X8.6811Y-6.122
X8.75Y-6.565
X8.8484Y-6.2992
X8.8583Y-6.7323
X8.8976Y-6.4075
X8.9764Y-6.1024
X8.9764Y-6.1909
X9.0256Y-6.2402
X9.0256Y-6.2697
X9.1535Y-5.9547
X9.1831Y-5.9646
T2
X7.9213Y-4.437
X7.9213Y-4.4685
X7.9213Y-4.5
X7.9528Y-4.437
X7.9528Y-4.4685
X7.9528Y-4.5
X7.9843Y-4.437
X7.9843Y-4.4685
X7.9843Y-4.5
T3
X6.6382Y-6.5957
X6.6382Y-6.9083
X6.7382Y-6.5957
X6.7382Y-6.9083
X6.8382Y-6.5957
X6.8382Y-6.9083
X6.9382Y-6.5957
X6.9382Y-6.9083
X7.0382Y-6.5957
X7.0382Y-6.9083
X7.1382Y-6.5957
X7.1382Y-6.9083
X7.2382Y-6.5957
X7.2382Y-6.9083
X7.3382Y-6.5957
X7.3382Y-6.9083
T4
X7.8484Y-5.199
X7.8484Y-5.2581
X8.0059Y-5.199
X8.0059Y-5.2581
T5
X7.75Y-5.0175
X7.75Y-5.3175
T6
X6.5748Y-4.6654
X6.5748Y-4.813
X6.7561Y-5.787
X6.7561Y-6.387
X6.8561Y-5.787
X6.8561Y-6.387
X6.939Y-4.0354
X6.9561Y-5.787
X6.9561Y-6.387
X7.0561Y-5.787
X7.0561Y-6.387
X7.0965Y-4.0354
X7.1457Y-7.7854
X7.1561Y-5.787
X7.1561Y-6.387
X7.2539Y-4.0354
X7.2561Y-5.787
X7.2561Y-6.387
X7.3031Y-7.7854
X7.3561Y-5.787
X7.3561Y-6.387
X7.4409Y-7.7854
X7.4561Y-5.787
X7.4561Y-6.387
X7.5561Y-5.787
X7.5561Y-6.387
X7.5787Y-7.7854
X7.6561Y-5.787
X7.6561Y-6.387
X7.7362Y-7.7854
X7.7561Y-5.787
X7.7561Y-6.387
X7.8561Y-5.787
X7.8561Y-6.387
X7.874Y-7.7854
X7.9561Y-5.787
X7.9561Y-6.387
X8.0315Y-7.7854
X8.0561Y-5.787
X8.0561Y-6.387
X8.1561Y-5.787
X8.1561Y-6.387
X8.189Y-7.7854
X8.3268Y-7.7854
X8.4646Y-7.7854
X8.6024Y-7.7854
X9.1732Y-6.5551
X9.1732Y-6.7323
X9.1732Y-6.9291
T7
X6.8622Y-7.1339
X7.0Y-7.3386
X7.1378Y-7.1339
X7.6772Y-4.9175
X7.6772Y-5.4175
X8.0433Y-7.1339
X8.1772Y-4.9175
X8.1772Y-5.4175
X8.1811Y-7.3386
X8.3189Y-7.1339
T8
X7.3819Y-7.1319
X7.5197Y-7.3366
X7.6575Y-7.1319
X7.7953Y-7.3366
X8.563Y-7.1319
X8.5876Y-4.2882
X8.7008Y-7.3366
X8.7254Y-4.4929
X8.8386Y-7.1319
X8.9764Y-7.3366
T0
M30
