%TF.GenerationSoftware,KiCad,Pcbnew,(6.0.5)*%
%TF.CreationDate,2023-05-26T17:46:03+02:00*%
%TF.ProjectId,EDUEXO-custom-PCB,45445545-584f-42d6-9375-73746f6d2d50,rev?*%
%TF.SameCoordinates,Original*%
%TF.FileFunction,Soldermask,Top*%
%TF.FilePolarity,Negative*%
%FSLAX46Y46*%
G04 Gerber Fmt 4.6, Leading zero omitted, Abs format (unit mm)*
G04 Created by KiCad (PCBNEW (6.0.5)) date 2023-05-26 17:46:03*
%MOMM*%
%LPD*%
G01*
G04 APERTURE LIST*
G04 Aperture macros list*
%AMRoundRect*
0 Rectangle with rounded corners*
0 $1 Rounding radius*
0 $2 $3 $4 $5 $6 $7 $8 $9 X,Y pos of 4 corners*
0 Add a 4 corners polygon primitive as box body*
4,1,4,$2,$3,$4,$5,$6,$7,$8,$9,$2,$3,0*
0 Add four circle primitives for the rounded corners*
1,1,$1+$1,$2,$3*
1,1,$1+$1,$4,$5*
1,1,$1+$1,$6,$7*
1,1,$1+$1,$8,$9*
0 Add four rect primitives between the rounded corners*
20,1,$1+$1,$2,$3,$4,$5,0*
20,1,$1+$1,$4,$5,$6,$7,0*
20,1,$1+$1,$6,$7,$8,$9,0*
20,1,$1+$1,$8,$9,$2,$3,0*%
G04 Aperture macros list end*
%ADD10R,1.130000X1.130000*%
%ADD11C,1.130000*%
%ADD12C,2.000000*%
%ADD13RoundRect,0.250000X0.250000X0.475000X-0.250000X0.475000X-0.250000X-0.475000X0.250000X-0.475000X0*%
%ADD14RoundRect,0.250000X-0.475000X0.250000X-0.475000X-0.250000X0.475000X-0.250000X0.475000X0.250000X0*%
%ADD15C,3.200000*%
%ADD16RoundRect,0.250000X0.262500X0.450000X-0.262500X0.450000X-0.262500X-0.450000X0.262500X-0.450000X0*%
%ADD17RoundRect,0.250000X0.475000X-0.250000X0.475000X0.250000X-0.475000X0.250000X-0.475000X-0.250000X0*%
%ADD18RoundRect,0.250000X0.450000X-0.262500X0.450000X0.262500X-0.450000X0.262500X-0.450000X-0.262500X0*%
%ADD19RoundRect,0.147500X-0.172500X0.147500X-0.172500X-0.147500X0.172500X-0.147500X0.172500X0.147500X0*%
%ADD20R,0.450000X0.600000*%
%ADD21RoundRect,0.250000X-0.250000X-0.475000X0.250000X-0.475000X0.250000X0.475000X-0.250000X0.475000X0*%
%ADD22C,1.651000*%
%ADD23R,1.600000X1.600000*%
%ADD24C,1.600000*%
%ADD25C,1.900000*%
%ADD26RoundRect,0.250000X-0.262500X-0.450000X0.262500X-0.450000X0.262500X0.450000X-0.262500X0.450000X0*%
%ADD27RoundRect,0.062500X0.062500X-0.375000X0.062500X0.375000X-0.062500X0.375000X-0.062500X-0.375000X0*%
%ADD28RoundRect,0.062500X0.375000X-0.062500X0.375000X0.062500X-0.375000X0.062500X-0.375000X-0.062500X0*%
%ADD29R,2.100000X2.100000*%
%ADD30C,1.950000*%
%ADD31RoundRect,0.250000X-0.450000X0.262500X-0.450000X-0.262500X0.450000X-0.262500X0.450000X0.262500X0*%
%ADD32RoundRect,0.150000X-0.150000X0.512500X-0.150000X-0.512500X0.150000X-0.512500X0.150000X0.512500X0*%
%ADD33RoundRect,0.218750X-0.218750X-0.256250X0.218750X-0.256250X0.218750X0.256250X-0.218750X0.256250X0*%
%ADD34C,1.578074*%
%ADD35C,1.280000*%
%ADD36RoundRect,0.150000X0.150000X-0.587500X0.150000X0.587500X-0.150000X0.587500X-0.150000X-0.587500X0*%
%ADD37RoundRect,0.147500X0.172500X-0.147500X0.172500X0.147500X-0.172500X0.147500X-0.172500X-0.147500X0*%
%ADD38RoundRect,0.587500X-0.587500X-1.162500X0.587500X-1.162500X0.587500X1.162500X-0.587500X1.162500X0*%
%ADD39R,1.350000X0.400000*%
%ADD40R,1.600000X2.100000*%
%ADD41R,1.900000X1.800000*%
%ADD42R,1.900000X1.900000*%
G04 APERTURE END LIST*
D10*
%TO.C,U1*%
X168610000Y-175470000D03*
D11*
X171150000Y-175470000D03*
X173690000Y-175470000D03*
X176230000Y-175470000D03*
X178770000Y-175470000D03*
X181310000Y-175470000D03*
X183850000Y-175470000D03*
X186390000Y-175470000D03*
X186390000Y-167530000D03*
X183850000Y-167530000D03*
X181310000Y-167530000D03*
X178770000Y-167530000D03*
X176230000Y-167530000D03*
X173690000Y-167530000D03*
X171150000Y-167530000D03*
X168610000Y-167530000D03*
%TD*%
D12*
%TO.C,GND3*%
X181500000Y-197750000D03*
%TD*%
D13*
%TO.C,C11*%
X192150000Y-129032000D03*
X190250000Y-129032000D03*
%TD*%
D12*
%TO.C,POWER_SRV0*%
X215000000Y-197750000D03*
%TD*%
%TO.C,+5V0*%
X204000000Y-197750000D03*
%TD*%
%TO.C,VREGN0*%
X184250000Y-102500000D03*
%TD*%
D14*
%TO.C,C15*%
X168750000Y-178800000D03*
X168750000Y-180700000D03*
%TD*%
D15*
%TO.C,H1*%
X169250000Y-104250000D03*
%TD*%
D12*
%TO.C,EMG0*%
X200000000Y-197750000D03*
%TD*%
%TO.C,J4*%
X228000000Y-186350000D03*
X221000000Y-186350000D03*
X224500000Y-181150000D03*
X217500000Y-181150000D03*
%TD*%
D16*
%TO.C,R8*%
X207662500Y-115750000D03*
X205837500Y-115750000D03*
%TD*%
D17*
%TO.C,C7*%
X204000000Y-109450000D03*
X204000000Y-107550000D03*
%TD*%
D18*
%TO.C,R2*%
X199750000Y-167662500D03*
X199750000Y-165837500D03*
%TD*%
D19*
%TO.C,D6*%
X174000000Y-134015000D03*
X174000000Y-134985000D03*
%TD*%
D20*
%TO.C,D4*%
X194500000Y-165700000D03*
X194500000Y-167800000D03*
%TD*%
D21*
%TO.C,C4*%
X202050000Y-105250000D03*
X203950000Y-105250000D03*
%TD*%
D12*
%TO.C,J3*%
X198000000Y-186350000D03*
X191000000Y-186350000D03*
X194500000Y-181150000D03*
X187500000Y-181150000D03*
%TD*%
D22*
%TO.C,A1*%
X209704000Y-162230000D03*
X169064000Y-146990000D03*
X169064000Y-162230000D03*
X209704000Y-146990000D03*
D23*
X171604000Y-162230000D03*
D24*
X174144000Y-162230000D03*
X176684000Y-162230000D03*
X179224000Y-162230000D03*
X181764000Y-162230000D03*
X184304000Y-162230000D03*
X186844000Y-162230000D03*
X189384000Y-162230000D03*
X191924000Y-162230000D03*
X194464000Y-162230000D03*
X197004000Y-162230000D03*
X199544000Y-162230000D03*
X202084000Y-162230000D03*
X204624000Y-162230000D03*
X207164000Y-162230000D03*
X207164000Y-146990000D03*
X204624000Y-146990000D03*
X202084000Y-146990000D03*
X199544000Y-146990000D03*
X197004000Y-146990000D03*
X194464000Y-146990000D03*
X191924000Y-146990000D03*
X189384000Y-146990000D03*
X186844000Y-146990000D03*
X184304000Y-146990000D03*
X181764000Y-146990000D03*
X179224000Y-146990000D03*
X176684000Y-146990000D03*
X174144000Y-146990000D03*
X171604000Y-146990000D03*
%TD*%
D25*
%TO.C,J1*%
X204300000Y-181200000D03*
X207800000Y-186400000D03*
X211300000Y-181200000D03*
%TD*%
D15*
%TO.C,H4*%
X169250000Y-195750000D03*
%TD*%
D18*
%TO.C,R9*%
X202000000Y-118912500D03*
X202000000Y-117087500D03*
%TD*%
D13*
%TO.C,C16*%
X198450000Y-115500000D03*
X196550000Y-115500000D03*
%TD*%
D15*
%TO.C,H3*%
X230750000Y-195750000D03*
%TD*%
D17*
%TO.C,C6*%
X207000000Y-108950000D03*
X207000000Y-107050000D03*
%TD*%
D18*
%TO.C,R10*%
X211228000Y-114374500D03*
X211228000Y-112549500D03*
%TD*%
D26*
%TO.C,R14*%
X171453500Y-143180000D03*
X173278500Y-143180000D03*
%TD*%
D16*
%TO.C,R6*%
X232412500Y-152862500D03*
X230587500Y-152862500D03*
%TD*%
D21*
%TO.C,C13*%
X192050000Y-174250000D03*
X193950000Y-174250000D03*
%TD*%
D12*
%TO.C,DRIVE_PWM_SRV0*%
X218500000Y-197750000D03*
%TD*%
%TO.C,ARDu_CONTROL_SRV0*%
X233000000Y-166500000D03*
%TD*%
%TO.C,SG0_SGN1*%
X189000000Y-197750000D03*
%TD*%
D27*
%TO.C,U2*%
X200750000Y-115437500D03*
X201250000Y-115437500D03*
X201750000Y-115437500D03*
X202250000Y-115437500D03*
X202750000Y-115437500D03*
X203250000Y-115437500D03*
D28*
X203937500Y-114750000D03*
X203937500Y-114250000D03*
X203937500Y-113750000D03*
X203937500Y-113250000D03*
X203937500Y-112750000D03*
X203937500Y-112250000D03*
D27*
X203250000Y-111562500D03*
X202750000Y-111562500D03*
X202250000Y-111562500D03*
X201750000Y-111562500D03*
X201250000Y-111562500D03*
X200750000Y-111562500D03*
D28*
X200062500Y-112250000D03*
X200062500Y-112750000D03*
X200062500Y-113250000D03*
X200062500Y-113750000D03*
X200062500Y-114250000D03*
X200062500Y-114750000D03*
D29*
X202000000Y-113500000D03*
%TD*%
D12*
%TO.C,BAT_VALUE_0*%
X233000000Y-171000000D03*
%TD*%
D21*
%TO.C,C5*%
X205550000Y-112000000D03*
X207450000Y-112000000D03*
%TD*%
D30*
%TO.C,J6*%
X218124000Y-108920000D03*
X221624000Y-114120000D03*
%TD*%
D12*
%TO.C,EMG1*%
X196500000Y-197750000D03*
%TD*%
D15*
%TO.C,H2*%
X230750000Y-104250000D03*
%TD*%
D21*
%TO.C,C12*%
X192050000Y-176282000D03*
X193950000Y-176282000D03*
%TD*%
D12*
%TO.C,VBUS0*%
X167000000Y-118500000D03*
%TD*%
D14*
%TO.C,C2*%
X192500000Y-165800000D03*
X192500000Y-167700000D03*
%TD*%
D12*
%TO.C,GND4*%
X167000000Y-122250000D03*
%TD*%
%TO.C,SG0_SGN0*%
X192500000Y-197750000D03*
%TD*%
D13*
%TO.C,C1*%
X198450000Y-117500000D03*
X196550000Y-117500000D03*
%TD*%
D31*
%TO.C,R3*%
X196500000Y-165837500D03*
X196500000Y-167662500D03*
%TD*%
D25*
%TO.C,J2*%
X174300000Y-181200000D03*
X177800000Y-186400000D03*
X181300000Y-181200000D03*
%TD*%
D12*
%TO.C,GND1*%
X233000000Y-176000000D03*
%TD*%
D32*
%TO.C,Q2*%
X232700000Y-155862500D03*
X231750000Y-155862500D03*
X230800000Y-155862500D03*
X230800000Y-158137500D03*
X231750000Y-158137500D03*
X232700000Y-158137500D03*
%TD*%
D13*
%TO.C,C10*%
X192150000Y-127000000D03*
X190250000Y-127000000D03*
%TD*%
D12*
%TO.C,VDC0*%
X180250000Y-102500000D03*
%TD*%
D33*
%TO.C,D3*%
X168212500Y-130000000D03*
X169787500Y-130000000D03*
%TD*%
D34*
%TO.C,U3*%
X207700000Y-124904700D03*
X195000000Y-124904700D03*
X207700000Y-137604700D03*
X195000000Y-137604700D03*
D35*
X196850000Y-127444700D03*
X196850000Y-135064700D03*
X203350000Y-132054700D03*
X203350000Y-133554700D03*
X199350000Y-132054700D03*
X199350000Y-133554700D03*
%TD*%
D26*
%TO.C,R7*%
X225087500Y-157250000D03*
X226912500Y-157250000D03*
%TD*%
D31*
%TO.C,R1*%
X188750000Y-170425000D03*
X188750000Y-172250000D03*
%TD*%
D36*
%TO.C,Q1*%
X225050000Y-154937500D03*
X226950000Y-154937500D03*
X226000000Y-153062500D03*
%TD*%
D14*
%TO.C,C18*%
X207000000Y-165800000D03*
X207000000Y-167700000D03*
%TD*%
D16*
%TO.C,TH1*%
X213162500Y-116500000D03*
X211337500Y-116500000D03*
%TD*%
D21*
%TO.C,C9*%
X199550000Y-140500000D03*
X201450000Y-140500000D03*
%TD*%
D17*
%TO.C,C8*%
X202000000Y-109450000D03*
X202000000Y-107550000D03*
%TD*%
D21*
%TO.C,C14*%
X171050000Y-177500000D03*
X172950000Y-177500000D03*
%TD*%
D37*
%TO.C,D5*%
X174000000Y-137735000D03*
X174000000Y-136765000D03*
%TD*%
D38*
%TO.C,L1*%
X198025000Y-108750000D03*
X191975000Y-108750000D03*
%TD*%
D33*
%TO.C,D2*%
X168276500Y-143180000D03*
X169851500Y-143180000D03*
%TD*%
D20*
%TO.C,D1*%
X209250000Y-165700000D03*
X209250000Y-167800000D03*
%TD*%
D12*
%TO.C,OUTPUT_SG0*%
X185500000Y-197750000D03*
%TD*%
%TO.C,+3V3*%
X208000000Y-197750000D03*
%TD*%
%TO.C,GND2*%
X176250000Y-102500000D03*
%TD*%
D13*
%TO.C,C3*%
X198450000Y-113500000D03*
X196550000Y-113500000D03*
%TD*%
D14*
%TO.C,C17*%
X204750000Y-165800000D03*
X204750000Y-167700000D03*
%TD*%
D31*
%TO.C,R4*%
X201750000Y-165837500D03*
X201750000Y-167662500D03*
%TD*%
%TO.C,R11*%
X213260000Y-112549500D03*
X213260000Y-114374500D03*
%TD*%
D39*
%TO.C,J5*%
X169925000Y-135000000D03*
X169925000Y-135650000D03*
X169925000Y-136300000D03*
X169925000Y-136950000D03*
X169925000Y-137600000D03*
D40*
X169800000Y-133200000D03*
X169800000Y-139400000D03*
D41*
X167250000Y-132500000D03*
D42*
X167250000Y-135100000D03*
X167250000Y-137500000D03*
D41*
X167250000Y-140100000D03*
%TD*%
D26*
%TO.C,R13*%
X171587500Y-129750000D03*
X173412500Y-129750000D03*
%TD*%
D31*
%TO.C,R12*%
X204000000Y-117087500D03*
X204000000Y-118912500D03*
%TD*%
D12*
%TO.C,ANGLE_SRV0*%
X211500000Y-197750000D03*
%TD*%
M02*
